## Hoja1
| Unnamed: 0 | Unnamed: 1 | Unnamed: 2 | Unnamed: 3 | Unnamed: 4 | Unnamed: 5 | Unnamed: 6 | Unnamed: 7 | Unnamed: 8 | Unnamed: 9 | Unnamed: 10 |
| --- | --- | --- | --- | --- | --- | --- | --- | --- | --- | --- |
| Cliente | Proyecto | Fecha | Concepto | Descripción | Hs Inicio | Hs Fin | Hs Total | Cantidad | Precio Unitario | Total |
| Empresa 1 S.A. | Ploteo de 2 Freezers Marca XXX | 2025-06-18 00:00:00 | MO | Rodrigo retiro | 16:55:00 | 18:00:00 | 01:05:00 | 65 | 350 | 22750 |
| Empresa 1 S.A. | Ploteo de 2 Freezers Marca XXX | 2025-06-18 00:00:00 | MO | Diego retiro | 16:55:00 | 18:00:00 | 01:05:00 | 65 | 350 | 22750 |
| Empresa 1 S.A. | Ploteo de 2 Freezers Marca XXX | 2025-06-18 00:00:00 | Insumo | Combustible Real | NaN | NaN | NaN | 28 | 1400 | 39200 |
| Empresa 1 S.A. | Ploteo de 2 Freezers Marca XXX | 2025-06-19 00:00:00 | MO | Edu montaje | 10:25:00 | 12:03:00 | 01:38:00 | 98 | 350 | 34300 |
| Empresa 1 S.A. | Ploteo de 2 Freezers Marca XXX | 2025-06-19 00:00:00 | MO | Edu montaje | 14:57:00 | 15:09:00 | 00:12:00 | 12 | 350 | 4200 |
| Empresa 1 S.A. | Ploteo de 2 Freezers Marca XXX | 2025-06-19 00:00:00 | Insumo | Adhesivo impreso | NaN | NaN | NaN | 4.515 | 63000 | 284445 |
| Empresa 1 S.A. | Ploteo de 2 Freezers Marca XXX | 2025-06-19 00:00:00 | Insumo | Adhesivo total | NaN | NaN | NaN | 0.1818 | 15500 | 2817.9 |
| Empresa 1 S.A. | Ploteo de 2 Freezers Marca XXX | 2025-06-19 00:00:00 | MO | Derlis corte adhesivo | 16:44:00 | 17:58:00 | 01:14:00 | 74 | 350 | 25900 |
| Empresa 1 S.A. | Ploteo de 2 Freezers Marca XXX | 2025-06-19 00:00:00 | Insumo | Cuter | NaN | NaN | NaN | 1 | 1500 | 1500 |
| Empresa 1 S.A. | Ploteo de 2 Freezers Marca XXX | 2025-06-20 00:00:00 | MO | Rodri ploteo | 08:14:00 | 09:58:00 | 01:44:00 | 104 | 350 | 36400 |
| Empresa 1 S.A. | Ploteo de 2 Freezers Marca XXX | 2025-06-20 00:00:00 | Insumo | Cuter | NaN | NaN | NaN | 1 | 1500 | 1500 |
| Empresa 1 S.A. | Ploteo de 2 Freezers Marca XXX | 2025-06-20 00:00:00 | Insumo | Film | NaN | NaN | NaN | 9 | 500 | 4500 |
| Empresa 1 S.A. | Ploteo de 2 Freezers Marca XXX | 2025-06-20 00:00:00 | Insumo | Alcohol | NaN | NaN | NaN | 0.1 | 20000 | 2000 |
| Empresa 1 S.A. | Ploteo de 2 Freezers Marca XXX | 2025-06-20 00:00:00 | MO | Rodri enfilado | 15:51:00 | 18:06:00 | 02:15:00 | 135 | 350 | 47250 |
| Empresa 1 S.A. | Ploteo de 2 Freezers Marca XXX | 2025-06-20 00:00:00 | Insumo | Film | NaN | NaN | NaN | 9 | 500 | 4500 |
| Empresa 1 S.A. | Ploteo de 2 Freezers Marca XXX | 2025-06-20 00:00:00 | Insumo | Cuter | NaN | NaN | NaN | 1 | 1500 | 1500 |
| Empresa 1 S.A. | Ploteo de 2 Freezers Marca XXX | 2025-06-20 00:00:00 | Insumo | Thiner | NaN | NaN | NaN | 0.2 | 19000 | 3800 |
| Empresa 1 S.A. | Ploteo de 2 Freezers Marca XXX | 2025-06-20 00:00:00 | Insumo | Estopa | NaN | NaN | NaN | 1 | 2500 | 2500 |
| Empresa 1 S.A. | Ploteo de 2 Freezers Marca XXX | 2025-06-20 00:00:00 | MO | Carlitos ploteo y enfilado | 12:42:00 | 14:54:00 | 02:12:00 | 132 | 350 | 46200 |
| Empresa 1 S.A. | Ploteo de 2 Freezers Marca XXX | 2025-06-23 00:00:00 | MO | Richard entrega segundo congelador | 11:14:00 | 11:28:00 | 00:14:00 | 14 | 350 | 4900 |
| Empresa 1 S.A. | Ploteo de 2 Freezers Marca XXX | 2025-06-23 00:00:00 | MO | Diego entrega segundo congelador | 11:14:00 | 11:28:00 | 00:14:00 | 14 | 350 | 4900 |
| Empresa 1 S.A. | Ploteo de 2 Freezers Marca XXX | 2025-06-23 00:00:00 | Insumo | Combustible Real | NaN | NaN | NaN | 4 | 1400 | 5600 |
| NaN | NaN | NaN | NaN | NaN | NaN | NaN | NaN | NaN | NaN | NaN |
| Cliente | Proyecto | Fecha | Concepto | Descripción | Hs Inicio | Hs Fin | Hs Total | Cantidad | Precio Unitario | Total |
| Empresa 2 S.A. | Mant. Barra Degustadora Marca ZZZ | 2025-06-18 00:00:00 | MO | Rodrigo retiro | 16:23:00 | 16:55:00 | 00:32:00 | 32 | 350 | 11200 |
| Empresa 2 S.A. | Mant. Barra Degustadora Marca ZZZ | 2025-06-18 00:00:00 | MO | Diego retiro | 16:23:00 | 16:55:00 | 00:32:00 | 32 | 350 | 11200 |
| Empresa 2 S.A. | Mant. Barra Degustadora Marca ZZZ | 2025-06-18 00:00:00 | Insumo | Combustible Real | NaN | NaN | NaN | 2 | 1400 | 2800 |
| Empresa 2 S.A. | Mant. Barra Degustadora Marca ZZZ | 2025-06-19 00:00:00 | MO | Carlitos presupuesto | 11:05:00 | 11:32:00 | 00:27:00 | 27 | 350 | 9450 |
| Empresa 2 S.A. | Mant. Barra Degustadora Marca ZZZ | 2025-06-20 00:00:00 | MO | Hector pintura | 08:18:00 | 11:34:00 | 03:16:00 | 196 | 350 | 68600 |
| Empresa 2 S.A. | Mant. Barra Degustadora Marca ZZZ | 2025-06-20 00:00:00 | Insumo | Pomo | NaN | NaN | NaN | 0.1 | 12000 | 1200 |
| Empresa 2 S.A. | Mant. Barra Degustadora Marca ZZZ | 2025-06-20 00:00:00 | Insumo | Kerosene | NaN | NaN | NaN | 0.3 | 16000 | 4800 |
| Empresa 2 S.A. | Mant. Barra Degustadora Marca ZZZ | 2025-06-20 00:00:00 | Insumo | Sellador | NaN | NaN | NaN | 0.2 | 45000 | 9000 |
| Empresa 2 S.A. | Mant. Barra Degustadora Marca ZZZ | 2025-06-20 00:00:00 | Insumo | Thinner acrilico | NaN | NaN | NaN | 0.3 | 20000 | 6000 |
| Empresa 2 S.A. | Mant. Barra Degustadora Marca ZZZ | 2025-06-20 00:00:00 | Insumo | Barniz Marino | NaN | NaN | NaN | 0.2 | 35500 | 7100 |
| Empresa 2 S.A. | Mant. Barra Degustadora Marca ZZZ | 2025-06-20 00:00:00 | Insumo | Thinner 2000 | NaN | NaN | NaN | 0.3 | 18000 | 5400 |
| Empresa 2 S.A. | Mant. Barra Degustadora Marca ZZZ | 2025-06-20 00:00:00 | Insumo | Gris grfito | NaN | NaN | NaN | 0.4 | 65000 | 26000 |
| Empresa 2 S.A. | Mant. Barra Degustadora Marca ZZZ | 2025-06-20 00:00:00 | Insumo | Thinner acrilico | NaN | NaN | NaN | 0.6 | 20000 | 12000 |
| Empresa 2 S.A. | Mant. Barra Degustadora Marca ZZZ | 2025-06-20 00:00:00 | Insumo | Lija | NaN | NaN | NaN | 1 | 2500 | 2500 |
| Empresa 2 S.A. | Mant. Barra Degustadora Marca ZZZ | 2025-06-20 00:00:00 | Insumo | Enduido | NaN | NaN | NaN | 0.05 | 9500 | 475 |
| Empresa 2 S.A. | Mant. Barra Degustadora Marca ZZZ | 2025-06-20 00:00:00 | Insumo | Estopa | NaN | NaN | NaN | 2 | 2500 | 5000 |
| Empresa 2 S.A. | Mant. Barra Degustadora Marca ZZZ | 2025-06-23 00:00:00 | MO | Richard carga + entrega (le sumé 10 min de carga a su hora) | 10:47:00 | 11:23:00 | 00:36:00 | 36 | 350 | 12600 |
| Empresa 2 S.A. | Mant. Barra Degustadora Marca ZZZ | 2025-06-23 00:00:00 | MO | Diego entrega (inventado) | 10:47:00 | 11:13:00 | 00:26:00 | 26 | 350 | 9100 |
| Empresa 2 S.A. | Mant. Barra Degustadora Marca ZZZ | 2025-06-23 00:00:00 | Insumo | Combustible Real | NaN | NaN | NaN | 7 | 2500 | 17500 |
| NaN | NaN | NaN | NaN | NaN | NaN | NaN | NaN | NaN | NaN | NaN |
| Cliente | Proyecto | Fecha | Concepto | Descripción | Hs Inicio | Hs Fin | Hs Total | Cantidad | Precio Unitario | Total |
| Empresa 3 S.A. | Pizarra Madera Marca YYY | 2025-06-18 00:00:00 | MO | Carlitos Presupuesto | 16:46:00 | 17:17:00 | 00:31:00 | 31 | 350 | 10850 |
| Empresa 3 S.A. | Pizarra Madera Marca YYY | 2025-06-19 00:00:00 | Insumo | Adhesivo impreso | NaN | NaN | NaN | 0.6264 | 63000 | 39463.2 |
| Empresa 3 S.A. | Pizarra Madera Marca YYY | 2025-06-19 00:00:00 | Insumo | Adhesivo itotal | NaN | NaN | NaN | 0.3008 | 15500 | 4662.4 |
| Empresa 3 S.A. | Pizarra Madera Marca YYY | 2025-06-19 00:00:00 | MO | Jc Fabricacion | 09:31:00 | 11:50:00 | 02:19:00 | 139 | 500 | 69500 |
| Empresa 3 S.A. | Pizarra Madera Marca YYY | 2025-06-19 00:00:00 | MO | Cristian Fabricacion | 09:30:00 | 11:51:00 | 02:21:00 | 141 | 350 | 49350 |
| Empresa 3 S.A. | Pizarra Madera Marca YYY | 2025-06-19 00:00:00 | Insumo | Mult de 6mm | NaN | NaN | NaN | 1 | 66000 | 66000 |
| Empresa 3 S.A. | Pizarra Madera Marca YYY | 2025-06-19 00:00:00 | Insumo | Bisagra | NaN | NaN | NaN | 2 | 1850 | 3700 |
| Empresa 3 S.A. | Pizarra Madera Marca YYY | 2025-06-19 00:00:00 | Insumo | Tornillos | NaN | NaN | NaN | 12 | 115 | 1380 |
| Empresa 3 S.A. | Pizarra Madera Marca YYY | 2025-06-19 00:00:00 | Insumo | Disco flap | NaN | NaN | NaN | 1 | 13100 | 13100 |
| Empresa 3 S.A. | Pizarra Madera Marca YYY | 2025-06-19 00:00:00 | Insumo | Lija | NaN | NaN | NaN | 1 | 2500 | 2500 |
| Empresa 3 S.A. | Pizarra Madera Marca YYY | 2025-06-19 00:00:00 | Insumo | Cola | NaN | NaN | NaN | 0.1 | 19000 | 1900 |
| Empresa 3 S.A. | Pizarra Madera Marca YYY | 2025-06-19 00:00:00 | Insumo | Clavo | NaN | NaN | NaN | 1 | 1500 | 1500 |
| Empresa 3 S.A. | Pizarra Madera Marca YYY | 2025-06-19 00:00:00 | MO | Hector pintura | 13:46:00 | 18:31:00 | 04:45:00 | 285 | 350 | 99750 |
| Empresa 3 S.A. | Pizarra Madera Marca YYY | 2025-06-19 00:00:00 | Insumo | Pomo (7 gotas marron, 4 gotas negro, 3 gotas cedro) | NaN | NaN | NaN | 0.25 | 12000 | 3000 |
| Empresa 3 S.A. | Pizarra Madera Marca YYY | 2025-06-19 00:00:00 | Insumo | Kerosene | NaN | NaN | NaN | 0.6 | 16000 | 9600 |
| Empresa 3 S.A. | Pizarra Madera Marca YYY | 2025-06-19 00:00:00 | Insumo | Sellador p/ madera | NaN | NaN | NaN | 0.3 | 45000 | 13500 |
| Empresa 3 S.A. | Pizarra Madera Marca YYY | 2025-06-19 00:00:00 | Insumo | Thinner acrilico | NaN | NaN | NaN | 0.5 | 20000 | 10000 |
| Empresa 3 S.A. | Pizarra Madera Marca YYY | 2025-06-19 00:00:00 | Insumo | Enuido | NaN | NaN | NaN | 0.1 | 9500 | 950 |
| Empresa 3 S.A. | Pizarra Madera Marca YYY | 2025-06-19 00:00:00 | Insumo | Lija | NaN | NaN | NaN | 1 | 2500 | 2500 |
| Empresa 3 S.A. | Pizarra Madera Marca YYY | 2025-06-20 00:00:00 | MO | Rodri ploteo | 10:01:00 | 10:11:00 | 00:10:00 | 10 | 350 | 3500 |
| Empresa 3 S.A. | Pizarra Madera Marca YYY | 2025-06-20 00:00:00 | Insumo | Cuter | NaN | NaN | NaN | 0.1 | 19000 | 1900 |
| Empresa 3 S.A. | Pizarra Madera Marca YYY | 2025-06-20 00:00:00 | MO | JC entrega de pizarra | 11:00:00 | 11:30:00 | 00:30:00 | 30 | 500 | 15000 |
| Empresa 3 S.A. | Pizarra Madera Marca YYY | 2025-06-20 00:00:00 | MO | Rodri entrega de pizarra | 11:00:00 | 11:31:00 | 00:31:00 | 31 | 350 | 10850 |
| Empresa 3 S.A. | Pizarra Madera Marca YYY | 2025-06-20 00:00:00 | Insumo | Combustible | NaN | NaN | NaN | 2 | 1400 | 2800 |
| NaN | NaN | NaN | NaN | NaN | NaN | NaN | NaN | NaN | NaN | NaN |
| NaN | NaN | NaN | NaN | NaN | NaN | NaN | NaN | NaN | NaN | NaN |
| Cliente | Proyecto | Fecha | Concepto | Descripción | Hs Inicio | Hs Fin | Hs Total | Cantidad | Precio Unitario | Total |
| Nestle SA | Poste de Chocolate | 2025-06-18 00:00:00 | MO | Carlitos Presupuesto | 16:46:00 | 17:17:00 | 00:31:00 | 31 | 350 | 10850 |
| Nestle SA | Poste de Chocolate | 2025-06-19 00:00:00 | Insumo | Adhesivo impreso | NaN | NaN | NaN | 0.6264 | 63000 | 39463.2 |
| Nestle SA | Poste de Chocolate | 2025-06-19 00:00:00 | Insumo | Adhesivo itotal | NaN | NaN | NaN | 0.3008 | 15500 | 4662.4 |
| Nestle SA | Poste de Chocolate | 2025-06-19 00:00:00 | MO | Jc Fabricacion | 09:31:00 | 11:50:00 | 02:19:00 | 139 | 500 | 69500 |
| Nestle SA | Poste de Chocolate | 2025-06-19 00:00:00 | MO | Cristian Fabricacion | 09:30:00 | 11:51:00 | 02:21:00 | 141 | 350 | 49350 |
| Nestle SA | Poste de Chocolate | 2025-06-19 00:00:00 | Insumo | Mult de 6mm | NaN | NaN | NaN | 1 | 66000 | 66000 |
| Nestle SA | Poste de Chocolate | 2025-06-19 00:00:00 | Insumo | Bisagra | NaN | NaN | NaN | 2 | 1850 | 3700 |
| Nestle SA | Poste de Chocolate | 2025-06-19 00:00:00 | Insumo | Tornillos | NaN | NaN | NaN | 12 | 115 | 1380 |
| Nestle SA | Poste de Chocolate | 2025-06-19 00:00:00 | Insumo | Disco flap | NaN | NaN | NaN | 1 | 13100 | 13100 |
| Nestle SA | Poste de Chocolate | 2025-06-19 00:00:00 | Insumo | Lija | NaN | NaN | NaN | 1 | 2500 | 2500 |
| Nestle SA | Poste de Chocolate | 2025-06-19 00:00:00 | Insumo | Cola | NaN | NaN | NaN | 0.1 | 19000 | 1900 |
| Nestle SA | Poste de Chocolate | 2025-06-19 00:00:00 | Insumo | Clavo | NaN | NaN | NaN | 1 | 1500 | 1500 |
| Nestle SA | Poste de Chocolate | 2025-06-19 00:00:00 | MO | Hector pintura | 13:46:00 | 18:31:00 | 04:45:00 | 285 | 350 | 99750 |
| Nestle SA | Poste de Chocolate | 2025-06-19 00:00:00 | Insumo | Pomo (7 gotas marron, 4 gotas negro, 3 gotas cedro) | NaN | NaN | NaN | 0.25 | 12000 | 3000 |
| Nestle SA | Poste de Chocolate | 2025-06-19 00:00:00 | Insumo | Kerosene | NaN | NaN | NaN | 0.6 | 16000 | 9600 |
| Nestle SA | Poste de Chocolate | 2025-06-19 00:00:00 | Insumo | Sellador p/ madera | NaN | NaN | NaN | 0.3 | 45000 | 13500 |
| Nestle SA | Poste de Chocolate | 2025-06-19 00:00:00 | Insumo | Thinner acrilico | NaN | NaN | NaN | 0.5 | 20000 | 10000 |
| Nestle SA | Poste de Chocolate | 2025-06-19 00:00:00 | Insumo | Enuido | NaN | NaN | NaN | 0.1 | 9500 | 950 |
| Nestle SA | Poste de Chocolate | 2025-06-19 00:00:00 | Insumo | Lija | NaN | NaN | NaN | 1 | 2500 | 2500 |
| Nestle SA | Poste de Chocolate | 2025-06-20 00:00:00 | MO | Rodri ploteo | 10:01:00 | 10:11:00 | 00:10:00 | 10 | 350 | 3500 |
| Nestle SA | Poste de Chocolate | 2025-06-20 00:00:00 | Insumo | Cuter | NaN | NaN | NaN | 0.1 | 19000 | 1900 |
| Nestle SA | Poste de Chocolate | 2025-06-20 00:00:00 | MO | JC entrega de pizarra | 11:00:00 | 11:30:00 | 00:30:00 | 30 | 500 | 15000 |
| Nestle SA | Poste de Chocolate | 2025-06-20 00:00:00 | MO | Rodri entrega de pizarra | 11:00:00 | 11:31:00 | 00:31:00 | 31 | 350 | 10850 |
| Nestle SA | Poste de Chocolate | 2025-06-20 00:00:00 | Insumo | Combustible | NaN | NaN | NaN | 2 | 1400 | 2800 |